HIERARCHY
ROOT hip
{
  OFFSET 0 0 0
  CHANNELS 6 Xposition Yposition Zposition Zrotation Yrotation Xrotation
  JOINT abdomen
  {
    OFFSET 0 20.6881 -0.73152
    CHANNELS 3 Zrotation Xrotation Yrotation
    JOINT chest
    {
      OFFSET 0 11.7043 -0.48768
      CHANNELS 3 Zrotation Xrotation Yrotation
      JOINT neck
      {
        OFFSET 0 22.1894 -2.19456
        CHANNELS 3 Zrotation Xrotation Yrotation
        JOINT head
        {
          OFFSET -0.24384 7.07133 1.2192
          CHANNELS 3 Zrotation Xrotation Yrotation
          JOINT leftEye
          {
            OFFSET 4.14528 8.04674 8.04672
            CHANNELS 3 Zrotation Xrotation Yrotation
            End Site
            {
              OFFSET 1 0 0
            }
          }
          JOINT rightEye
          {
            OFFSET -3.6576 8.04674 8.04672
            CHANNELS 3 Zrotation Xrotation Yrotation
            End Site
            {
              OFFSET 1 0 0
            }
          }
        }
      }
      JOINT rCollar
      {
        OFFSET -2.68224 19.2634 -4.8768
        CHANNELS 3 Zrotation Xrotation Yrotation
        JOINT rShldr
        {
          OFFSET -8.77824 -1.95073 1.46304
          CHANNELS 3 Zrotation Xrotation Yrotation
          JOINT rForeArm
          {
            OFFSET -28.1742 -1.7115 0.48768
            CHANNELS 3 Zrotation Xrotation Yrotation
            JOINT rHand
            {
              OFFSET -22.5879 0.773209 7.07136
              CHANNELS 3 Zrotation Xrotation Yrotation
              JOINT rThumb1
              {
                OFFSET -1.2192 -0.487915 3.41376
                CHANNELS 3 Zrotation Xrotation Yrotation
                JOINT rThumb2
                {
                  OFFSET -3.37035 -0.52449 3.41376
                  CHANNELS 3 Zrotation Xrotation Yrotation
                  End Site
                  {
                    OFFSET -1.78271 -1.18214 1.43049
                  }
                }
              }
              JOINT rIndex1
              {
                OFFSET -7.75947 0.938293 5.60832
                CHANNELS 3 Zrotation Xrotation Yrotation
                JOINT rIndex2
                {
                  OFFSET -2.54057 -0.884171 1.56538
                  CHANNELS 3 Zrotation Xrotation Yrotation
                  End Site
                  {
                    OFFSET -1.62519 -0.234802 1.16502
                  }
                }
              }
              JOINT rMid1
              {
                OFFSET -8.24714 1.18213 3.41376
                CHANNELS 3 Zrotation Xrotation Yrotation
                JOINT rMid2
                {
                  OFFSET -3.10165 -0.590103 1.0647
                  CHANNELS 3 Zrotation Xrotation Yrotation
                  End Site
                  {
                    OFFSET -2.48547 -0.328903 0.83742
                  }
                }
              }
              JOINT rRing1
              {
                OFFSET -8.82822 0.546677 1.51678
                CHANNELS 3 Zrotation Xrotation Yrotation
                JOINT rRing2
                {
                  OFFSET -2.60934 -0.819778 -0.0198488
                  CHANNELS 3 Zrotation Xrotation Yrotation
                  End Site
                  {
                    OFFSET -2.33842 -0.294052 0.168128
                  }
                }
              }
              JOINT rPinky1
              {
                OFFSET -8.27202 -0.0477905 -0.4584
                CHANNELS 3 Zrotation Xrotation Yrotation
                JOINT rPinky2
                {
                  OFFSET -1.82734 -0.647385 -0.700984
                  CHANNELS 3 Zrotation Xrotation Yrotation
                  End Site
                  {
                    OFFSET -1.69225 -0.51767 -0.607171
                  }
                }
              }
            }
          }
        }
      }
      JOINT lCollar
      {
        OFFSET 2.68224 19.2634 -4.8768
        CHANNELS 3 Zrotation Xrotation Yrotation
        JOINT lShldr
        {
          OFFSET 8.77824 -1.95073 1.46304
          CHANNELS 3 Zrotation Xrotation Yrotation
          JOINT lForeArm
          {
            OFFSET 28.1742 -1.7115 0.48768
            CHANNELS 3 Zrotation Xrotation Yrotation
            JOINT lHand
            {
              OFFSET 22.5879 0.773209 7.07136
              CHANNELS 3 Zrotation Xrotation Yrotation
              JOINT lThumb1
              {
                OFFSET 1.2192 -0.487915 3.41376
                CHANNELS 3 Zrotation Xrotation Yrotation
                JOINT lThumb2
                {
                  OFFSET 3.37035 -0.52449 3.41376
                  CHANNELS 3 Zrotation Xrotation Yrotation
                  End Site
                  {
                    OFFSET 1.78271 -1.18214 1.43049
                  }
                }
              }
              JOINT lIndex1
              {
                OFFSET 7.75947 0.938293 5.60832
                CHANNELS 3 Zrotation Xrotation Yrotation
                JOINT lIndex2
                {
                  OFFSET 2.54057 -0.884171 1.56538
                  CHANNELS 3 Zrotation Xrotation Yrotation
                  End Site
                  {
                    OFFSET 1.62519 -0.234802 1.16502
                  }
                }
              }
              JOINT lMid1
              {
                OFFSET 8.24714 1.18213 3.41376
                CHANNELS 3 Zrotation Xrotation Yrotation
                JOINT lMid2
                {
                  OFFSET 3.10165 -0.590103 1.0647
                  CHANNELS 3 Zrotation Xrotation Yrotation
                  End Site
                  {
                    OFFSET 2.48547 -0.328903 0.83742
                  }
                }
              }
              JOINT lRing1
              {
                OFFSET 8.82822 0.546677 1.51678
                CHANNELS 3 Zrotation Xrotation Yrotation
                JOINT lRing2
                {
                  OFFSET 2.60934 -0.819778 -0.0198488
                  CHANNELS 3 Zrotation Xrotation Yrotation
                  End Site
                  {
                    OFFSET 2.33842 -0.294052 0.168128
                  }
                }
              }
              JOINT lPinky1
              {
                OFFSET 8.27202 -0.0477905 -0.4584
                CHANNELS 3 Zrotation Xrotation Yrotation
                JOINT lPinky2
                {
                  OFFSET 1.82734 -0.647385 -0.700984
                  CHANNELS 3 Zrotation Xrotation Yrotation
                  End Site
                  {
                    OFFSET 1.69225 -0.51767 -0.607171
                  }
                }
              }
            }
          }
        }
      }
    }
  }
  JOINT rButtock
  {
    OFFSET -8.77824 4.35084 1.2192
    CHANNELS 3 Zrotation Xrotation Yrotation
    JOINT rThigh
    {
      OFFSET 0 -1.70687 -2.19456
      CHANNELS 3 Zrotation Xrotation Yrotation
      JOINT rShin
      {
        OFFSET 0 -36.8199 0.73152
        CHANNELS 3 Zrotation Xrotation Yrotation
        JOINT rFoot
        {
          OFFSET 0.73152 -45.1104 -5.12064
          CHANNELS 3 Zrotation Xrotation Yrotation
          End Site
          {
            OFFSET -1.1221 -3.69964 12.103
          }
        }
      }
    }
  }
  JOINT lButtock
  {
    OFFSET 8.77824 4.35084 1.2192
    CHANNELS 3 Zrotation Xrotation Yrotation
    JOINT lThigh
    {
      OFFSET 0 -1.70687 -2.19456
      CHANNELS 3 Zrotation Xrotation Yrotation
      JOINT lShin
      {
        OFFSET 0 -36.8199 0.73152
        CHANNELS 3 Zrotation Xrotation Yrotation
        JOINT lFoot
        {
          OFFSET -0.73152 -45.1104 -5.12064
          CHANNELS 3 Zrotation Xrotation Yrotation
          End Site
          {
            OFFSET 1.1221 -3.69964 12.103
          }
        }
      }
    }
  }
}
MOTION
Frames:	8
Frame Time:	0.00833333
-4.96455 83.9761 35.9746 -4.0703 -0.6369 -1.4359 0.209647 1.33761 5.68849 -0.708381 -1.40968 1.61115 3.72758 1.53923 1.81337 -4.41858 16.5375 3.45006 -0.0 0.0 0.0 -0.0 0.0 0.0 8.14483e-14 -1.29991e-14 -7.99177e-15 25.6737 58.627 46.3683 -27.8652 -41.0633 85.8568 -0.363945 16.9068 2.4483 -3.012e-10 -6.2517e-10 2.54037e-10 -5.15523e-10 -1.07194e-09 4.41909e-10 -3.01181e-10 -6.25157e-10 2.54015e-10 7.73091 5.47488 0.417314 -3.01201e-10 -6.25169e-10 2.54037e-10 2.90554 0.965183 0.102902 -3.01191e-10 -6.25167e-10 2.54036e-10 10.2786 0.731801 0.0259123 -3.01204e-10 -6.25165e-10 2.54047e-10 2.22167 -0.733487 -0.20892 8.1364e-14 -1.29967e-14 -8.28373e-15 -75.3444 52.6427 -14.7669 27.9079 -40.8776 -85.5063 22.314 -73.9943 29.3366 2.31473e-10 -2.45335e-09 -3.65794e-10 4.15804e-10 -4.0424e-09 -6.08926e-10 2.31472e-10 -2.45334e-09 -3.65782e-10 -7.73091 5.47488 -0.417314 2.31474e-10 -2.45335e-09 -3.65792e-10 -2.90554 0.965183 -0.102902 2.3147e-10 -2.45334e-09 -3.65789e-10 -10.2786 0.731801 -0.0259123 2.31475e-10 -2.45334e-09 -3.65793e-10 -2.22167 -0.733487 0.20892 -2.03217e-16 0.0 -3.88251e-19 -21.547 -3.12744 -0.0157753 -0.00102215 -0.417264 -0.00879478 0.478817 3.53963 -0.0116881 2.03217e-16 0.0 3.88251e-19 10.3759 -7.62736 -5.64997 0.0756118 23.8786 -0.573675 3.79888 -17.9714 12.0912
-4.97769 83.9755 35.9491 -4.0877 -0.6864 -1.4302 0.190527 1.32328 5.60766 -0.637911 -1.20234 1.5899 3.75857 1.44209 1.85059 -4.51483 16.2889 3.50705 -0.0 0.0 0.0 -0.0 0.0 0.0 4.52803e-14 -1.88386e-14 -2.03444e-14 24.2703 58.4108 47.5689 -27.9058 -40.8707 85.5075 -0.372961 17.1059 2.47894 -2.53243e-10 -4.86301e-10 2.59226e-10 -4.33372e-10 -8.33886e-10 4.51899e-10 -2.5323e-10 -4.86292e-10 2.59209e-10 7.73091 5.47488 0.417314 -2.53243e-10 -4.863e-10 2.59225e-10 2.90554 0.965183 0.102902 -2.53232e-10 -4.86299e-10 2.59224e-10 10.2786 0.731801 0.0259123 -2.53246e-10 -4.863e-10 2.59234e-10 2.22167 -0.733487 -0.20892 4.52381e-14 -1.88434e-14 -2.06053e-14 -75.2294 52.3314 -15.0215 27.9337 -40.7553 -85.2819 22.1245 -73.9007 29.1394 1.05852e-10 -9.82616e-10 -1.49403e-10 1.88494e-10 -1.61652e-09 -2.48729e-10 1.05851e-10 -9.8262e-10 -1.49397e-10 -7.73091 5.47488 -0.417314 1.05855e-10 -9.82621e-10 -1.49408e-10 -2.90554 0.965183 -0.102902 1.05851e-10 -9.82614e-10 -1.49404e-10 -10.2786 0.731801 -0.0259123 1.05855e-10 -9.82614e-10 -1.4941e-10 -2.22167 -0.733487 0.20892 -2.03217e-16 0.0 -3.88251e-19 -21.5466 -3.12812 -0.0157857 -0.00102571 -0.41579 -0.00882773 0.478921 3.53894 -0.0117115 2.03217e-16 0.0 3.88251e-19 10.3789 -7.63373 -5.63746 0.0756435 23.8873 -0.573785 3.80971 -17.962 12.1335
-4.99458 83.9755 35.9205 -4.1189 -0.7328 -1.4144 0.16759 1.31295 5.52216 -0.568879 -0.988392 1.56736 3.79164 1.34777 1.88608 -4.59407 16.0074 3.55608 -0.0 0.0 0.0 -0.0 0.0 0.0 -3.09667e-15 -2.25629e-14 -3.24019e-14 23.0225 58.176 48.6514 -27.9314 -40.7496 85.2852 -0.380903 17.2786 2.50559 -1.61081e-10 -2.58546e-10 2.24045e-10 -2.75395e-10 -4.43192e-10 3.91657e-10 -1.61074e-10 -2.58541e-10 2.24033e-10 7.73091 5.47488 0.417314 -1.61081e-10 -2.58546e-10 2.24043e-10 2.90554 0.965183 0.102902 -1.61069e-10 -2.58545e-10 2.24041e-10 10.2786 0.731801 0.0259123 -1.61084e-10 -2.58547e-10 2.24052e-10 2.22167 -0.733487 -0.20892 -3.08985e-15 -2.2575e-14 -3.26255e-14 -75.1263 52.0125 -15.2478 27.9575 -40.6355 -85.0657 21.9237 -73.8001 28.9305 -3.74073e-11 7.56921e-10 1.0534e-10 -7.09151e-11 1.25359e-09 1.75705e-10 -3.74087e-11 7.56911e-10 1.0534e-10 -7.73091 5.47488 -0.417314 -3.74033e-11 7.56918e-10 1.05328e-10 -2.90554 0.965183 -0.102902 -3.74076e-11 7.56922e-10 1.05333e-10 -10.2786 0.731801 -0.0259123 -3.7404e-11 7.56922e-10 1.05326e-10 -2.22167 -0.733487 0.20892 -2.03217e-16 0.0 -3.88251e-19 -21.5462 -3.12867 -0.0157947 -0.00102876 -0.41432 -0.0088561 0.478988 3.53811 -0.011731 2.03217e-16 0.0 3.88251e-19 10.3809 -7.64419 -5.62391 0.0755814 23.8958 -0.573886 3.82044 -17.9527 12.1746
-4.99109 83.9772 35.8997 -4.0839 -0.7409 -1.4203 0.146483 1.32432 5.45482 -0.522637 -0.850507 1.54938 3.81028 1.30178 1.90189 -4.62757 15.7314 3.56788 -0.0 0.0 0.0 -0.0 0.0 0.0 -5.10104e-14 -2.06651e-14 -3.88624e-14 22.4107 57.9665 49.2114 -27.9331 -40.7532 85.2823 -0.380744 17.2786 2.50554 -5.13863e-11 5.61209e-12 1.43573e-10 -8.73913e-11 1.027e-11 2.52484e-10 -5.13831e-11 5.61408e-12 1.43564e-10 7.73091 5.47488 0.417314 -5.13857e-11 5.61199e-12 1.4357e-10 2.90554 0.965183 0.102902 -5.13735e-11 5.61288e-12 1.43569e-10 10.2786 0.731801 0.0259123 -5.13886e-11 5.61169e-12 1.4358e-10 2.22167 -0.733487 -0.20892 -5.09694e-14 -2.06818e-14 -3.90612e-14 -75.0736 51.8092 -15.3593 27.9702 -40.5686 -84.9469 21.8013 -73.738 28.8029 -1.57005e-10 2.24592e-09 3.21293e-10 -2.87311e-10 3.70968e-09 5.35776e-10 -1.57006e-10 2.24591e-09 3.2129e-10 -7.73091 5.47488 -0.417314 -1.57e-10 2.24592e-09 3.21277e-10 -2.90554 0.965183 -0.102902 -1.57005e-10 2.24592e-09 3.21283e-10 -10.2786 0.731801 -0.0259123 -1.57001e-10 2.24593e-09 3.21274e-10 -2.22167 -0.733487 0.20892 -2.03217e-16 0.0 -3.88251e-19 -21.5458 -3.12903 -0.0158018 -0.00103082 -0.41292 -0.00887569 0.479003 3.53714 -0.0117448 2.03217e-16 0.0 3.88251e-19 10.3813 -7.65921 -5.60935 0.0753699 23.9025 -0.573781 3.82421 -17.9423 12.1928
-4.97717 83.9797 35.8862 -4.0197 -0.7116 -1.4341 0.128092 1.3719 5.41149 -0.511806 -0.823111 1.53729 3.82599 1.31277 1.89884 -4.61519 15.4814 3.54295 -0.0 0.0 0.0 -0.0 0.0 0.0 -1.1189e-13 -8.77988e-15 -3.75552e-14 22.6846 57.7814 49.0986 -27.9024 -40.9018 85.5521 -0.369347 17.0346 2.46785 1.19413e-10 4.14183e-10 -4.7451e-11 2.05207e-10 7.12145e-10 -7.89423e-11 1.19415e-10 4.14185e-10 -4.74616e-11 7.73091 5.47488 0.417314 1.19413e-10 4.14183e-10 -4.74558e-11 2.90554 0.965183 0.102902 1.19425e-10 4.14184e-10 -4.74544e-11 10.2786 0.731801 0.0259123 1.1941e-10 4.14189e-10 -4.74442e-11 2.22167 -0.733487 -0.20892 -1.1183e-13 -8.79805e-15 -3.7747e-14 -75.1058 51.7757 -15.2858 27.9662 -40.5886 -84.9833 21.7732 -73.7236 28.7736 -2.61382e-10 3.66983e-09 5.22715e-10 -4.76076e-10 6.05764e-09 8.72347e-10 -2.61382e-10 3.66981e-09 5.22716e-10 -7.73091 5.47488 -0.417314 -2.61376e-10 3.66982e-09 5.227e-10 -2.90554 0.965183 -0.102902 -2.61383e-10 3.66982e-09 5.22706e-10 -10.2786 0.731801 -0.0259123 -2.61378e-10 3.66983e-09 5.22697e-10 -2.22167 -0.733487 0.20892 -2.03217e-16 0.0 -3.88251e-19 -21.5452 -3.12927 -0.0158098 -0.00103244 -0.411445 -0.00889141 0.478892 3.53596 -0.011743 2.03217e-16 0.0 3.88251e-19 10.3798 -7.67809 -5.58454 0.0748924 23.9062 -0.572988 3.81565 -17.9258 12.1739
-4.98371 83.9812 35.8668 -4.0302 -0.6869 -1.4216 0.109679 1.44298 5.38009 -0.522783 -0.857991 1.52806 3.84225 1.35763 1.88462 -4.57032 15.2335 3.49431 -0.0 0.0 0.0 -0.0 0.0 0.0 -1.86891e-13 1.0079e-14 -3.15602e-14 23.5343 57.605 48.5569 -27.8424 -41.1621 86.0409 -0.351507 16.6355 2.40654 3.48646e-10 9.54489e-10 -3.25087e-10 5.979e-10 1.6405e-09 -5.6098e-10 3.48649e-10 9.54493e-10 -3.25101e-10 7.73091 5.47488 0.417314 3.48646e-10 9.54491e-10 -3.25094e-10 2.90554 0.965183 0.102902 3.48656e-10 9.54492e-10 -3.25089e-10 10.2786 0.731801 0.0259123 3.48642e-10 9.54506e-10 -3.2508e-10 2.22167 -0.733487 -0.20892 -1.86818e-13 1.00611e-14 -3.17527e-14 -75.1926 51.8392 -15.0904 27.9518 -40.6617 -85.1155 21.7931 -73.7338 28.7944 -3.66081e-10 5.19764e-09 7.35804e-10 -6.65464e-10 8.57695e-09 1.22895e-09 -3.6608e-10 5.19762e-09 7.35814e-10 -7.73091 5.47488 -0.417314 -3.66075e-10 5.19762e-09 7.35793e-10 -2.90554 0.965183 -0.102902 -3.66083e-10 5.19763e-09 7.358e-10 -10.2786 0.731801 -0.0259123 -3.66076e-10 5.19764e-09 7.35792e-10 -2.22167 -0.733487 0.20892 -2.03217e-16 0.0 -3.88251e-19 -21.5446 -3.1294 -0.015818 -0.00103363 -0.409913 -0.00890349 0.478687 3.5346 -0.0117299 2.03217e-16 0.0 3.88251e-19 10.3767 -7.70083 -5.55255 0.0742124 23.9079 -0.571756 3.79965 -17.9054 12.1321
-4.99695 83.9833 35.8486 -4.0617 -0.6737 -1.4043 0.0914679 1.51448 5.3565 -0.537682 -0.913857 1.52088 3.83043 1.43421 1.85163 -4.48533 14.9593 3.41159 -0.0 0.0 0.0 -0.0 0.0 0.0 -2.44932e-13 2.83499e-14 -2.34515e-14 24.5959 57.4645 47.7791 -27.7604 -41.5061 86.6837 -0.331805 16.1745 2.33614 5.40283e-10 1.39302e-09 -5.6045e-10 9.26286e-10 2.39407e-09 -9.69889e-10 5.40287e-10 1.39302e-09 -5.60468e-10 7.73091 5.47488 0.417314 5.40282e-10 1.39302e-09 -5.60459e-10 2.90554 0.965183 0.102902 5.40291e-10 1.39302e-09 -5.60451e-10 10.2786 0.731801 0.0259123 5.40278e-10 1.39304e-09 -5.60441e-10 2.22167 -0.733487 -0.20892 -2.44856e-13 2.83341e-14 -2.3648e-14 -75.2728 51.9321 -14.8877 27.9361 -40.7386 -85.2555 21.8552 -73.7654 28.859 -4.40452e-10 6.28537e-09 8.86329e-10 -7.99678e-10 1.03698e-08 1.481e-09 -4.40449e-10 6.28536e-09 8.86348e-10 -7.73091 5.47488 -0.417314 -4.40445e-10 6.28535e-09 8.86323e-10 -2.90554 0.965183 -0.102902 -4.40455e-10 6.28537e-09 8.8633e-10 -10.2786 0.731801 -0.0259123 -4.40446e-10 6.28538e-09 8.86323e-10 -2.22167 -0.733487 0.20892 -2.03217e-16 0.0 -3.88251e-19 -21.544 -3.12923 -0.0158206 -0.00103317 -0.408639 -0.00890071 0.478529 3.53319 -0.0117241 2.03217e-16 0.0 3.88251e-19 10.3725 -7.72906 -5.53187 0.0735444 23.9098 -0.57098 3.78461 -17.8907 12.0891
-5.00139 83.9866 35.8372 -4.0571 -0.6609 -1.3898 0.0736559 1.56333 5.33659 -0.538585 -0.949423 1.51495 3.76201 1.54035 1.79225 -4.35301 14.6299 3.28459 -0.0 0.0 0.0 -0.0 0.0 0.0 -2.54929e-13 3.8471e-14 -1.58034e-14 25.5133 57.3903 46.9511 -27.6649 -41.9073 87.4132 -0.314031 15.7449 2.27083 5.98295e-10 1.49625e-09 -6.24655e-10 1.02596e-09 2.57163e-09 -1.08193e-09 5.98299e-10 1.49625e-09 -6.24674e-10 7.73091 5.47488 0.417314 5.98293e-10 1.49625e-09 -6.24664e-10 2.90554 0.965183 0.102902 5.98302e-10 1.49625e-09 -6.24655e-10 10.2786 0.731801 0.0259123 5.9829e-10 1.49628e-09 -6.24645e-10 2.22167 -0.733487 -0.20892 -2.54871e-13 3.84594e-14 -1.60022e-14 -75.2832 51.9878 -14.7944 27.9295 -40.7705 -85.3138 21.9537 -73.8152 28.9616 -4.53843e-10 6.38906e-09 9.00059e-10 -8.2292e-10 1.05382e-08 1.50391e-09 -4.53839e-10 6.38906e-09 9.00081e-10 -7.73091 5.47488 -0.417314 -4.53836e-10 6.38904e-09 9.00056e-10 -2.90554 0.965183 -0.102902 -4.53847e-10 6.38906e-09 9.00063e-10 -10.2786 0.731801 -0.0259123 -4.53836e-10 6.38907e-09 9.00056e-10 -2.22167 -0.733487 0.20892 -2.03217e-16 0.0 -3.88251e-19 -21.5439 -3.12859 -0.0158117 -0.00102982 -0.407938 -0.00887186 0.47856 3.53187 -0.0117444 2.03217e-16 0.0 3.88251e-19 10.3675 -7.76438 -5.54103 0.0731029 23.9142 -0.571552 3.77892 -17.8915 12.0665
